
<svg version="1.1" xmlns="http://www.w3.org/2000/svg" width="270" height="148" viewBox="0 0 270 148" preserveAspectRatio="xMidYMid meet">
<path d="M0 0 C89.1 0 178.2 0 270 0 C270 48.84 270 97.68 270 148 C180.9 148 91.8 148 0 148 C0 99.16 0 50.32 0 0 Z " fill="#FDFCFD" transform="translate(0,0)" />
<path d="M0 0 C0.99 0.33 1.98 0.66 3 1 C3 1.66 3 2.32 3 3 C3.61875 3.20625 4.2375 3.4125 4.875 3.625 C7 5 7 5 8.25 7.6875 C9 11 9 11 9 18 C2.73 18 -3.54 18 -10 18 C-9.34 19.98 -8.68 21.96 -8 24 C-5.14921909 24.76716851 -5.14921909 24.76716851 -2 25 C-1.54625 24.525625 -1.0925 24.05125 -0.625 23.5625 C-0.08875 23.046875 0.4475 22.53125 1 22 C3.71650697 21.71804718 6.2586078 21.86517743 9 22 C8.08315806 25.30063098 7.06877946 26.93474769 4.5625 29.3125 C-0.30801518 31.61958614 -4.68988931 31.66473001 -10 31 C-13.66349058 29.84785876 -14.81296499 29.22747501 -17.3125 26.1875 C-20.06799322 20.83397032 -19.73609277 14.8361641 -19 9 C-17.23374266 5.05988748 -15.81143356 3.56611643 -12.3125 1.125 C-8.12044949 -0.29871527 -4.38808013 -0.43462889 0 0 Z " fill="#0C0C0C" transform="translate(258,77)" />
<path d="M0 0 C2.86339552 1.0096036 4.48236712 2.12411667 7 4 C8.9375 6.75 8.9375 6.75 10 10 C10 12.64 10 15.28 10 18 C3.4 18 -3.2 18 -10 18 C-8.45957252 22.80304035 -8.45957252 22.80304035 -6 25 C-2.97314468 24.82888749 -2.97314468 24.82888749 0 24 C0.66 23.34 1.32 22.68 2 22 C4.68839385 21.73008094 7.29141936 21.91262643 10 22 C8.59539425 25.51151439 7.51974098 27.61970172 4.4375 29.875 C-1.04254863 31.66847046 -6.25980838 31.59569383 -11.875 30.375 C-14.13720231 28.91122203 -15.86056764 27.49522724 -17.26953125 25.171875 C-19.0185069 19.9717121 -18.62531347 14.37897195 -18 9 C-17.04641265 6.06959393 -16.29195157 5.23163705 -14 3 C-9.57190133 -0.01915819 -5.27237328 -0.90587108 0 0 Z " fill="#0B0B0B" transform="translate(116,77)" />
<path d="M0 0 C3.74030185 1.60298651 4.73158465 2.59737698 7 6 C7.22705078 8.54370117 7.22705078 8.54370117 7.1953125 11.54296875 C7.18886719 12.61611328 7.18242187 13.68925781 7.17578125 14.79492188 C7.15902344 15.91447266 7.14226563 17.03402344 7.125 18.1875 C7.11597656 19.31865234 7.10695313 20.44980469 7.09765625 21.61523438 C7.07406862 24.41036828 7.041153 27.20507845 7 30 C4.36 30 1.72 30 -1 30 C-1 29.01 -1 28.02 -1 27 C-1.66 27.495 -2.32 27.99 -3 28.5 C-6.30443303 30.15221651 -8.42441991 30.51508538 -12.0625 30.3359375 C-14 30 -14 30 -17 28.5625 C-19 26 -19 26 -19.44140625 23.87109375 C-19.56464002 21.45809694 -19.46622802 19.37035553 -19 17 C-17.375 14.5 -17.375 14.5 -15 13 C-10.37456771 11.73851847 -5.76015855 11.9179283 -1 12 C-1.33 10.02 -1.66 8.04 -2 6 C-4.64 6 -7.28 6 -10 6 C-10 6.99 -10 7.98 -10 9 C-12.64 9 -15.28 9 -18 9 C-17.63156045 6.27354732 -17.34413097 4.43798486 -15.625 2.25 C-11.23640677 -1.12584095 -5.24341883 -0.43759132 0 0 Z " fill="#080808" transform="translate(22,78)" />
<path d="M0 0 C2.97 0 5.94 0 9 0 C9.33 0.99 9.66 1.98 10 3 C10.99 2.34 11.98 1.68 13 1 C16.04582472 0.51760419 18.95054497 0.54782041 22 1 C24.5 2.75 24.5 2.75 26 5 C27.00627178 8.10869836 27.116581 10.94806734 27.09765625 14.203125 C27.09443359 15.1828125 27.09121094 16.1625 27.08789062 17.171875 C27.07951172 18.18765625 27.07113281 19.2034375 27.0625 20.25 C27.05798828 21.28125 27.05347656 22.3125 27.04882812 23.375 C27.03706088 25.91672573 27.02062011 28.45833319 27 31 C24.36 31 21.72 31 19 31 C18.97494385 30.3387915 18.9498877 29.67758301 18.92407227 28.99633789 C18.80846898 26.01817695 18.68558246 23.0403608 18.5625 20.0625 C18.52318359 19.02158203 18.48386719 17.98066406 18.44335938 16.90820312 C18.40146484 15.91884766 18.35957031 14.92949219 18.31640625 13.91015625 C18.27974854 12.99371338 18.24309082 12.07727051 18.20532227 11.13305664 C18.13756592 10.42914795 18.06980957 9.72523926 18 9 C17.67 8.67 17.34 8.34 17 8 C14 7.83333333 14 7.83333333 11 8 C10.67 8.33 10.34 8.66 10 9 C9.84285346 10.63256758 9.74914586 12.27135338 9.68359375 13.91015625 C9.64169922 14.89951172 9.59980469 15.88886719 9.55664062 16.90820312 C9.51732422 17.94912109 9.47800781 18.99003906 9.4375 20.0625 C9.39431641 21.10728516 9.35113281 22.15207031 9.30664062 23.22851562 C9.20018775 25.81886884 9.0981724 28.40932186 9 31 C6.03 31 3.06 31 0 31 C0 20.77 0 10.54 0 0 Z " fill="#131313" transform="translate(131,77)" />
<path d="M0 0 C2.64 0 5.28 0 8 0 C8.02505615 0.6612085 8.0501123 1.32241699 8.07592773 2.00366211 C8.19153102 4.98182305 8.31441754 7.9596392 8.4375 10.9375 C8.47681641 11.97841797 8.51613281 13.01933594 8.55664062 14.09179688 C8.61948242 15.57583008 8.61948242 15.57583008 8.68359375 17.08984375 C8.72025146 18.00628662 8.75690918 18.92272949 8.79467773 19.86694336 C8.86243408 20.57085205 8.93019043 21.27476074 9 22 C9.33 22.33 9.66 22.66 10 23 C12.95817107 23.25005386 12.95817107 23.25005386 16 23 C16.66 22.34 17.32 21.68 18 21 C18.37004294 18.77341846 18.37004294 18.77341846 18.4140625 16.2109375 C18.45273438 15.26992187 18.49140625 14.32890625 18.53125 13.359375 C18.5621875 12.37453125 18.593125 11.3896875 18.625 10.375 C18.66367188 9.38242188 18.70234375 8.38984375 18.7421875 7.3671875 C18.8366314 4.91164615 18.92219875 2.4561159 19 0 C21.64 0 24.28 0 27 0 C27 9.9 27 19.8 27 30 C24.03 30 21.06 30 18 30 C17.67 29.34 17.34 28.68 17 28 C16.01 28.66 15.02 29.32 14 30 C11.9140625 30.37109375 11.9140625 30.37109375 9.625 30.4375 C8.49964844 30.49744141 8.49964844 30.49744141 7.3515625 30.55859375 C5 30 5 30 2.23046875 28.2734375 C-0.23163342 24.66005462 -0.36356748 23.30304831 -0.48828125 19.04296875 C-0.45515564 16.75730145 -0.39568519 14.47189325 -0.3125 12.1875 C-0.28994141 11.01767578 -0.26738281 9.84785156 -0.24414062 8.64257812 C-0.18532091 5.76041231 -0.10317141 2.88086319 0 0 Z " fill="#0E0E0E" transform="translate(185,78)" />
<path d="M0 0 C2.06357243 0.08016097 4.12683896 0.1767317 6.1875 0.3125 C6.5175 1.3025 6.8475 2.2925 7.1875 3.3125 C7.8475 3.580625 8.5075 3.84875 9.1875 4.125 C9.8475 4.516875 10.5075 4.90875 11.1875 5.3125 C11.9375 8.4375 11.9375 8.4375 12.1875 11.3125 C8.9375 11.5625 8.9375 11.5625 5.1875 11.3125 C2.75 9.3125 2.75 9.3125 1.1875 7.3125 C-1.24188689 7.66482207 -1.24188689 7.66482207 -3.8125 8.3125 C-4.4725 8.9725 -5.1325 9.6325 -5.8125 10.3125 C-6.13241706 13.14120249 -6.13241706 13.14120249 -6.0625 16.3125 C-6.06765625 17.385 -6.0728125 18.4575 -6.078125 19.5625 C-5.99046875 20.47 -5.9028125 21.3775 -5.8125 22.3125 C-5.1525 22.9725 -4.4925 23.6325 -3.8125 24.3125 C-1.12410615 24.58241906 1.47891936 24.39987357 4.1875 24.3125 C4.5175 22.9925 4.8475 21.6725 5.1875 20.3125 C7.4975 20.3125 9.8075 20.3125 12.1875 20.3125 C12.5 22.5 12.5 22.5 12.1875 25.3125 C9.62629574 28.35825642 7.98230342 30.04756553 4.1875 31.3125 C-0.39176639 31.71609636 -4.48248677 31.87846308 -8.75 30.0625 C-11.38735491 27.82474432 -13.22674567 25.80351102 -14.5 22.5625 C-15.21071944 17.44532002 -15.20108383 13.51915505 -13.625 8.625 C-9.94106929 1.89229906 -7.75505808 0.01684052 0 0 Z " fill="#0B0B0B" transform="translate(80.8125,76.6875)" />
<path d="M0 0 C3.63749654 1.21249885 6.21770037 2.21770037 8.9375 4.9375 C10 7 10 7 10 11 C6.75 11.25 6.75 11.25 3 11 C0.5625 9 0.5625 9 -1 7 C-3.43717258 7.27034634 -3.43717258 7.27034634 -6 8 C-8.15942819 11.23914229 -8.27232978 12.24859733 -8.25 16 C-8.25515625 16.86625 -8.2603125 17.7325 -8.265625 18.625 C-8.15414552 21.265795 -8.15414552 21.265795 -6 24 C-3.36 24 -0.72 24 2 24 C2.33 22.68 2.66 21.36 3 20 C5.31 20 7.62 20 10 20 C9.74560763 23.64629065 9.13553242 25.79218363 7.125 28.875 C3.73082013 31.18304231 2.48617057 31.35691704 -1.5 31.4375 C-5.43014229 31.34366233 -8.46009885 30.73984938 -12 29 C-14.02531496 26.74965004 -15.64719678 24.70560645 -17 22 C-17.51472399 16.36335039 -17.78613214 11.54515628 -15.1875 6.4375 C-14.465625 5.633125 -13.74375 4.82875 -13 4 C-12.484375 3.401875 -11.96875 2.80375 -11.4375 2.1875 C-8.03016761 -0.62725284 -4.18866213 -0.27924414 0 0 Z " fill="#080808" transform="translate(51,77)" />
<path d="M0 0 C0.99 0 1.98 0 3 0 C3 2.97 3 5.94 3 9 C4.98 9 6.96 9 9 9 C9 10.98 9 12.96 9 15 C7.02 15 5.04 15 3 15 C3.33 20.61 3.66 26.22 4 32 C5.65 32 7.3 32 9 32 C9 34.31 9 36.62 9 39 C7.41906283 39.1357675 5.83473048 39.23234745 4.25 39.3125 C3.36828125 39.37050781 2.4865625 39.42851563 1.578125 39.48828125 C-1 39 -1 39 -3.3125 37.09375 C-5.6902218 32.73459336 -5.43906103 29.06309302 -5.25 24.1875 C-5.23195312 23.30384766 -5.21390625 22.42019531 -5.1953125 21.50976562 C-5.14838513 19.33937457 -5.07664731 17.16954481 -5 15 C-6.32 15 -7.64 15 -9 15 C-9 13.02 -9 11.04 -9 9 C-7.68 9 -6.36 9 -5 9 C-5 7.02 -5 5.04 -5 3 C-3.35 2.67 -1.7 2.34 0 2 C0 1.34 0 0.68 0 0 Z " fill="#070707" transform="translate(171,69)" />
<path d="M0 0 C8.87842985 2.43303126 17.41405225 5.70836494 26 9 C26 11.31 26 13.62 26 16 C20.6933515 18.87443461 15.26501167 21.12870097 9.625 23.25 C8.91085938 23.52021973 8.19671875 23.79043945 7.4609375 24.06884766 C2.25489851 26 2.25489851 26 0 26 C0 23.36 0 20.72 0 18 C1.76858691 17.32739649 3.53996016 16.66211605 5.3125 16 C6.29863281 15.62875 7.28476563 15.2575 8.30078125 14.875 C11 14 11 14 14 14 C14 13.34 14 12.68 14 12 C13.40832031 11.87882812 12.81664062 11.75765625 12.20703125 11.6328125 C7.96196415 10.73255357 3.97560339 9.79543379 0 8 C0 5.36 0 2.72 0 0 Z " fill="#A30EFE" transform="translate(157,40)" />
<path d="M0 0 C2.64 0 5.28 0 8 0 C8.33 0.99 8.66 1.98 9 3 C9.763125 2.505 10.52625 2.01 11.3125 1.5 C14 0 14 0 17 0 C17 2.64 17 5.28 17 8 C14.36 8.99 11.72 9.98 9 11 C8.67 17.27 8.34 23.54 8 30 C5.36 30 2.72 30 0 30 C0 20.1 0 10.2 0 0 Z " fill="#0B0B0B" transform="translate(219,78)" />
<path d="M0 0 C0.94875 0.185625 1.8975 0.37125 2.875 0.5625 C3.205 2.5425 3.535 4.5225 3.875 6.5625 C-2.065 7.0575 -2.065 7.0575 -8.125 7.5625 C-7.465 7.2325 -6.805 6.9025 -6.125 6.5625 C-6.125 5.9025 -6.125 5.2425 -6.125 4.5625 C-8.765 4.5625 -11.405 4.5625 -14.125 4.5625 C-13.795 3.2425 -13.465 1.9225 -13.125 0.5625 C-13.125 1.5525 -13.125 2.5425 -13.125 3.5625 C-10.485 3.5625 -7.845 3.5625 -5.125 3.5625 C-5.125 2.5725 -5.125 1.5825 -5.125 0.5625 C-3.125 -0.4375 -3.125 -0.4375 0 0 Z " fill="#D9D9D9" transform="translate(17.125,83.4375)" />
<path d="M0 0 C3.625 0.3125 3.625 0.3125 7 1 C7.33 1.33 7.66 1.66 8 2 C8 3.65 8 5.3 8 7 C4.04 7 0.08 7 -4 7 C-3.67 5.35 -3.34 3.7 -3 2 C-2.01 1.34 -1.02 0.68 0 0 Z " fill="#D9D9D9" transform="translate(251,83)" />
<path d="M0 0 C1.51928038 -0.07179964 3.04167482 -0.08392007 4.5625 -0.0625 C5.38878906 -0.05347656 6.21507812 -0.04445313 7.06640625 -0.03515625 C7.70449219 -0.02355469 8.34257812 -0.01195313 9 0 C9.25 2.3125 9.25 2.3125 9 5 C7.3125 6.8125 7.3125 6.8125 5 8 C2.3125 8.25 2.3125 8.25 0 8 C-0.33 7.67 -0.66 7.34 -1 7 C-1.125 4 -1.125 4 -1 1 C-0.67 0.67 -0.34 0.34 0 0 Z " fill="#E7E7E7" transform="translate(12,95)" />
<path d="M0 0 C2.9375 -0.1875 2.9375 -0.1875 6 0 C6.66 0.66 7.32 1.32 8 2 C8 3.32 8 4.64 8 6 C4.37 6 0.74 6 -3 6 C-1 1 -1 1 0 0 Z " fill="#F7F7F7" transform="translate(109,83)" />
</svg>
