
<svg version="1.1" xmlns="http://www.w3.org/2000/svg" width="121" height="105" viewBox="0 0 121 105" preserveAspectRatio="xMidYMid meet">
<path d="M0 0 C3.1442252 1.07440861 6.03974449 2.50106844 9 4 C10.34952609 4.5939903 11.70332424 5.17843514 13.0625 5.75 C14.5165625 6.36875 14.5165625 6.36875 16 7 C16 8.32 16 9.64 16 11 C16.680625 10.87625 17.36125 10.7525 18.0625 10.625 C21.98369298 11.12557783 23.74245022 12.9304358 26.64453125 15.4921875 C27.09183594 15.98976563 27.53914063 16.48734375 28 17 C28 17.66 28 18.32 28 19 C28.66 19 29.32 19 30 19 C30 19.66 30 20.32 30 21 C30.66 21 31.32 21 32 21 C32 21.66 32 22.32 32 23 C32.66 23 33.32 23 34 23 C34 23.66 34 24.32 34 25 C35.485 25.495 35.485 25.495 37 26 C37 26.66 37 27.32 37 28 C38.485 28.495 38.485 28.495 40 29 C40 29.66 40 30.32 40 31 C41.98 31.495 41.98 31.495 44 32 C43.67 32.99 43.34 33.98 43 35 C40.03 35.66 37.06 36.32 34 37 C38.29 36.67 42.58 36.34 47 36 C46.67 36.99 46.34 37.98 46 39 C30.18159867 43.62172421 15.60727266 43.07276879 0 38 C-4.06894843 36.47035272 -8.05426798 34.82340646 -12 33 C-11.67 32.01 -11.34 31.02 -11 30 C-8.6875 28.3125 -8.6875 28.3125 -6 27 C-4.68 27 -3.36 27 -2 27 C-2 26.34 -2 25.68 -2 25 C4.625 21 4.625 21 8 21 C8 20.34 8 19.68 8 19 C9.65 18.67 11.3 18.34 13 18 C13 17.34 13 16.68 13 16 C12.01 16.33 11.02 16.66 10 17 C8.33637583 17.34820041 6.67004829 17.68404492 5 18 C5 18.66 5 19.32 5 20 C2.71070947 21.17154293 0.41881638 22.33738074 -1.875 23.5 C-2.52597656 23.83386719 -3.17695312 24.16773437 -3.84765625 24.51171875 C-8.7734375 27 -8.7734375 27 -11 27 C-11 27.66 -11 28.32 -11 29 C-12.2375 29.3403125 -12.2375 29.3403125 -13.5 29.6875 C-17.15305471 31.05739552 -20.04272553 32.81547099 -23.265625 34.9765625 C-25 36 -25 36 -27 36 C-30.05767342 30.1030584 -31.76578055 25.6732305 -31 19 C-29.08957211 13.49347256 -25.39669064 9.69209278 -21 6 C-17.9375 4.25 -17.9375 4.25 -15 3 C-14.071875 2.443125 -13.14375 1.88625 -12.1875 1.3125 C-7.95612205 -0.4298321 -4.51484731 -0.68655529 0 0 Z M-15 5 C-15 5.33 -15 5.66 -15 6 C-13.02 6 -11.04 6 -9 6 C-9 5.67 -9 5.34 -9 5 C-10.98 5 -12.96 5 -15 5 Z M-9 6 C-9 6.33 -9 6.66 -9 7 C-7.02 7 -5.04 7 -3 7 C-3 6.67 -3 6.34 -3 6 C-4.98 6 -6.96 6 -9 6 Z M-3 7 C-1.515 7.99 -1.515 7.99 0 9 C0.33 8.34 0.66 7.68 1 7 C-0.32 7 -1.64 7 -3 7 Z M4 8 C4.33 9.32 4.66 10.64 5 12 C5.66 11.67 6.32 11.34 7 11 C6.67 10.01 6.34 9.02 6 8 C5.34 8 4.68 8 4 8 Z M7 8 C7.99 9.485 7.99 9.485 9 11 C9 10.01 9 9.02 9 8 C8.34 8 7.68 8 7 8 Z M10 8 C10.33 8.99 10.66 9.98 11 11 C11 10.01 11 9.02 11 8 C10.67 8 10.34 8 10 8 Z M1 9 C2 11 2 11 2 11 Z M-8 10 C-7 13 -7 13 -7 13 Z M-24 20 C-23 22 -23 22 -23 22 Z M-23 22 C-22 24 -22 24 -22 24 Z M-21 25 C-20.34 26.32 -19.68 27.64 -19 29 C-18.34 28.67 -17.68 28.34 -17 28 C-18.32 27.01 -19.64 26.02 -21 25 Z M-26 27 C-25 29 -25 29 -25 29 Z M14 28 C14 28.33 14 28.66 14 29 C15.65 29 17.3 29 19 29 C19 28.67 19 28.34 19 28 C17.35 28 15.7 28 14 28 Z M33 28 C37 29 37 29 37 29 Z M21 29 C21 29.33 21 29.66 21 30 C24.3 30 27.6 30 31 30 C31 29.67 31 29.34 31 29 C27.7 29 24.4 29 21 29 Z M-24 30 C-23 32 -23 32 -23 32 Z M10 31 C14 32 14 32 14 32 Z M36 31 C40 32 40 32 40 32 Z M15 32 C15 32.33 15 32.66 15 33 C21.93 33 28.86 33 36 33 C36 32.67 36 32.34 36 32 C29.07 32 22.14 32 15 32 Z M13 36 C13 36.33 13 36.66 13 37 C14.65 37 16.3 37 18 37 C18 36.67 18 36.34 18 36 C16.35 36 14.7 36 13 36 Z " fill="#5E9039" transform="translate(50,0)" />
<path d="M0 0 C3.13846792 1.08698157 6.04128852 2.5006143 9 4 C10.66194738 4.67834587 12.32598903 5.35199575 14 6 C14 6.66 14 7.32 14 8 C13.01 8.66 12.02 9.32 11 10 C12.32 11.32 13.64 12.64 15 14 C8.375 18 8.375 18 5 18 C5 18.66 5 19.32 5 20 C2.71070947 21.17154293 0.41881638 22.33738074 -1.875 23.5 C-2.52597656 23.83386719 -3.17695312 24.16773437 -3.84765625 24.51171875 C-8.7734375 27 -8.7734375 27 -11 27 C-11 27.66 -11 28.32 -11 29 C-12.2375 29.3403125 -12.2375 29.3403125 -13.5 29.6875 C-17.15305471 31.05739552 -20.04272553 32.81547099 -23.265625 34.9765625 C-25 36 -25 36 -27 36 C-30.05767342 30.1030584 -31.76578055 25.6732305 -31 19 C-29.08957211 13.49347256 -25.39669064 9.69209278 -21 6 C-17.9375 4.25 -17.9375 4.25 -15 3 C-14.071875 2.443125 -13.14375 1.88625 -12.1875 1.3125 C-7.95839033 -0.4288981 -4.51240478 -0.69135691 0 0 Z M-15 5 C-15 5.33 -15 5.66 -15 6 C-13.02 6 -11.04 6 -9 6 C-9 5.67 -9 5.34 -9 5 C-10.98 5 -12.96 5 -15 5 Z M-9 6 C-9 6.33 -9 6.66 -9 7 C-7.02 7 -5.04 7 -3 7 C-3 6.67 -3 6.34 -3 6 C-4.98 6 -6.96 6 -9 6 Z M-3 7 C-1.515 7.99 -1.515 7.99 0 9 C0.33 8.34 0.66 7.68 1 7 C-0.32 7 -1.64 7 -3 7 Z M4 8 C4.33 9.32 4.66 10.64 5 12 C5.66 11.67 6.32 11.34 7 11 C6.67 10.01 6.34 9.02 6 8 C5.34 8 4.68 8 4 8 Z M7 8 C7.99 9.485 7.99 9.485 9 11 C9 10.01 9 9.02 9 8 C8.34 8 7.68 8 7 8 Z M1 9 C2 11 2 11 2 11 Z M-8 10 C-7 13 -7 13 -7 13 Z M-24 20 C-23 22 -23 22 -23 22 Z M-23 22 C-22 24 -22 24 -22 24 Z M-21 25 C-20.34 26.32 -19.68 27.64 -19 29 C-18.34 28.67 -17.68 28.34 -17 28 C-18.32 27.01 -19.64 26.02 -21 25 Z M-26 27 C-25 29 -25 29 -25 29 Z M-24 30 C-23 32 -23 32 -23 32 Z " fill="#7E8D36" transform="translate(50,0)" />
<path d="M0 0 C3.74503349 0.60403766 6.72908134 1.70238335 10.125 3.375 C20.93972645 8.4247913 31.65435277 10.19559544 43.5 10.1875 C44.47018066 10.18814453 45.44036133 10.18878906 46.43994141 10.18945312 C54.11425448 10.13342695 61.45060929 9.44288696 69 8 C69 8.66 69 9.32 69 10 C62.73 11.65 56.46 13.3 50 15 C57.4967332 14.4769721 64.67271233 13.66971378 72 12 C71.67 12.99 71.34 13.98 71 15 C68.52322508 16.01541746 66.18488675 16.8251067 63.625 17.5625 C62.52744385 17.8867395 62.52744385 17.8867395 61.40771484 18.2175293 C45.54793797 22.80245929 29.62391157 24.00875554 13.6328125 19.26953125 C5.60216741 16.46312302 -1.24802756 12.10149029 -8 7 C-7.67 6.01 -7.34 5.02 -7 4 C-6.401875 3.896875 -5.80375 3.79375 -5.1875 3.6875 C-2.71756736 2.91123545 -1.67748765 1.92911079 0 0 Z M22 14 C26 15 26 15 26 15 Z " fill="#0F9A4B" transform="translate(34,33)" />
<path d="M0 0 C3.3956697 -0.08745946 6.79104773 -0.14054444 10.1875 -0.1875 C11.14720703 -0.21263672 12.10691406 -0.23777344 13.09570312 -0.26367188 C17.26102282 -0.30691049 20.25669286 -0.33735431 24.08984375 1.40234375 C26.29527116 3.24696504 27.2275023 4.21900829 28 7 C27.875 10.5625 27.875 10.5625 27 14 C24.79443555 16.13441721 23.18434691 16.95185353 20.203125 17.73046875 C17.46875 18.15364583 14.734375 18.57682292 12 19 C12 22.96 12 26.92 12 31 C13.32 31.33 14.64 31.66 16 32 C16 32.66 16 33.32 16 34 C10.72 34 5.44 34 0 34 C0 33.34 0 32.68 0 32 C1.32 31.34 2.64 30.68 4 30 C4 21.09 4 12.18 4 3 C2.68 2.67 1.36 2.34 0 2 C0 1.34 0 0.68 0 0 Z M11 2 C11.33 6.62 11.66 11.24 12 16 C15.44327821 15.2188121 15.44327821 15.2188121 19 14 C19.66 13.01 20.32 12.02 21 11 C20.91832511 7.42823885 20.91832511 7.42823885 20 4 C16.76887492 1.4452998 16.76887492 1.4452998 11 2 Z " fill="#FBFCFC" transform="translate(29,64)" />
<path d="M0 0 C0.99 0.33 1.98 0.66 3 1 C4.33447266 3.56030273 4.33447266 3.56030273 5.6640625 6.93359375 C6.14617187 8.13951172 6.62828125 9.34542969 7.125 10.58789062 C7.62532883 11.87096557 8.12532503 13.15417027 8.625 14.4375 C9.13177092 15.71720984 9.63957138 16.99651248 10.1484375 18.27539062 C11.07907496 20.61824542 12.00482978 22.96304923 12.92431641 25.31030273 C13.92247125 27.91419906 13.92247125 27.91419906 15 30 C17.01669827 31.13350534 17.01669827 31.13350534 19 32 C19 32.66 19 33.32 19 34 C13.39 34 7.78 34 2 34 C2 33.34 2 32.68 2 32 C3.65 31.67 5.3 31.34 7 31 C6.01 28.03 5.02 25.06 4 22 C0.7 22 -2.6 22 -6 22 C-6.66 24.64 -7.32 27.28 -8 30 C-7.01 30.66 -6.02 31.32 -5 32 C-5 32.66 -5 33.32 -5 34 C-8.96 34 -12.92 34 -17 34 C-17 33.34 -17 32.68 -17 32 C-16.23397461 31.63664551 -15.46794922 31.27329102 -14.67871094 30.89892578 C-11.27321877 28.48478815 -10.58758108 26.50567783 -9.140625 22.6171875 C-8.90591492 22.00231476 -8.67120483 21.38744202 -8.42938232 20.75393677 C-7.68699609 18.79985928 -6.96795125 16.83817053 -6.25 14.875 C-5.51294572 12.90680098 -4.77126064 10.94041601 -4.027771 8.97463989 C-3.35860999 7.19812046 -2.70099663 5.41726424 -2.04394531 3.63623047 C-1 1 -1 1 0 0 Z M-2 9 C-2.99 11.97 -3.98 14.94 -5 18 C-2.36 18 0.28 18 3 18 C1.68 15.03 0.36 12.06 -1 9 C-1.33 9 -1.66 9 -2 9 Z " fill="#FBFCFC" transform="translate(72,64)" />
<path d="M0 0 C0 3.96 0 7.92 0 12 C-3 9 -3 9 -4.4375 6.4375 C-5.82018196 3.97243025 -5.82018196 3.97243025 -7.8125 2.625 C-10.95230664 1.72791239 -12.88835221 2.02761006 -16 3 C-18.56142407 5.63065175 -19.83859061 7.51577183 -21 11 C-21.40679844 16.42137156 -21.51362417 21.43209465 -19.8125 26.625 C-18.14963746 29.08567108 -18.14963746 29.08567108 -15.75 30.4375 C-12.18291657 31.1671307 -9.53119064 30.85010145 -6 30 C-3.41557624 28.12852073 -2.29310171 25.88461151 -1 23 C-0.67 23 -0.34 23 0 23 C-0.125 26.25 -0.125 26.25 -1 30 C-3.375 32.4375 -3.375 32.4375 -7 34 C-12.17268772 34.75451234 -17.180406 34.80579464 -21.9375 32.4375 C-25.41848985 29.66691624 -27.67899691 27.2365898 -29 23 C-29.78158271 17.60143901 -29.61374899 12.61215133 -27.4375 7.5625 C-25.83031257 4.76140191 -24.21010723 3.207267 -21.4375 1.5625 C-14.09713261 -1.77403063 -7.78626468 -1.09280908 0 0 Z " fill="#FBFCFC" transform="translate(121,64)" />
<path d="M0 0 C2.82866758 0.74611232 5.19809492 1.7943975 7.8203125 3.0859375 C18.63503895 8.1357288 29.34966527 9.90653294 41.1953125 9.8984375 C42.16549316 9.89908203 43.13567383 9.89972656 44.13525391 9.90039062 C51.80956698 9.84436445 59.14592179 9.15382446 66.6953125 7.7109375 C66.6953125 8.3709375 66.6953125 9.0309375 66.6953125 9.7109375 C50.0052617 15.22180333 32.80728692 17.2546079 15.5078125 13.1484375 C8.39825542 10.92066905 2.06326068 7.53385412 -4.3046875 3.7109375 C-4.3046875 2.7209375 -4.3046875 1.7309375 -4.3046875 0.7109375 C-2.3046875 -0.2890625 -2.3046875 -0.2890625 0 0 Z " fill="#F3801F" transform="translate(36.3046875,33.2890625)" />
<path d="M0 0 C5.28 0 10.56 0 16 0 C16 0.66 16 1.32 16 2 C14.02 2.99 14.02 2.99 12 4 C12 12.58 12 21.16 12 30 C13.32 30.66 14.64 31.32 16 32 C16 32.66 16 33.32 16 34 C10.72 34 5.44 34 0 34 C0.33 33.01 0.66 32.02 1 31 C1.99 31 2.98 31 4 31 C4.02898097 26.89584811 4.0467922 22.79172247 4.0625 18.6875 C4.07087891 17.52025391 4.07925781 16.35300781 4.08789062 15.15039062 C4.09111328 14.03212891 4.09433594 12.91386719 4.09765625 11.76171875 C4.10289307 10.73006592 4.10812988 9.69841309 4.11352539 8.63549805 C4.11635 5.89053726 4.11635 5.89053726 3 3 C2.01 2.67 1.02 2.34 0 2 C0 1.34 0 0.68 0 0 Z " fill="#FBFCFC" transform="translate(0,64)" />
<path d="M0 0 C2.02165694 0.59778563 4.01813874 1.28120212 6 2 C8.63914895 2.87513327 11.28844194 3.71790911 13.9375 4.5625 C14.95360352 4.89411133 14.95360352 4.89411133 15.99023438 5.23242188 C23.07894972 7.48205254 29.90858216 8.17190795 37.3125 8.125 C38.42419556 8.12209961 38.42419556 8.12209961 39.55834961 8.11914062 C45.09236448 8.07568452 50.50620332 7.69762498 56 7 C55.67 7.99 55.34 8.98 55 10 C39.18159867 14.62172421 24.60727266 14.07276879 9 9 C4.93105157 7.47035272 0.94573202 5.82340646 -3 4 C-2.67 3.01 -2.34 2.02 -2 1 C-1.34 0.67 -0.68 0.34 0 0 Z " fill="#0C9B4C" transform="translate(41,29)" />
<path d="M0 0 C0.99 0.33 1.98 0.66 3 1 C2.59007812 1.47050781 2.18015625 1.94101563 1.7578125 2.42578125 C0.94957031 3.35970703 0.94957031 3.35970703 0.125 4.3125 C-0.40867187 4.92738281 -0.94234375 5.54226562 -1.4921875 6.17578125 C-3.81779647 8.98940661 -4.95788592 10.62799228 -5.375 14.3125 C-4.93656149 18.623812 -3.70166463 20.66264958 -1 24 C-0.34 24.33 0.32 24.66 1 25 C0 28 0 28 -1.55859375 29.16796875 C-6.77777778 32 -6.77777778 32 -9 32 C-12.05767342 26.1030584 -13.76578055 21.6732305 -13 15 C-11.08399881 9.47740833 -7.306754 5.79777399 -3 2 C-2.01 1.34 -1.02 0.68 0 0 Z M-8 23 C-7 25 -7 25 -7 25 Z M-6 26 C-5 28 -5 28 -5 28 Z " fill="#F47F1E" transform="translate(32,4)" />
<path d="M0 0 C4.37316817 0.62662289 8.35765907 1.72785766 12.5625 3.0625 C23.95841792 6.37844736 36.38490588 5.93886906 48 4 C48.66 4.33 49.32 4.66 50 5 C49.67 5.99 49.34 6.98 49 8 C34.770079 12.06569171 20.90255256 10.28215979 7 6 C4.13255853 4.8357165 1.66270065 3.58628975 -1 2 C-0.67 1.34 -0.34 0.68 0 0 Z " fill="#F67F1E" transform="translate(44,27)" />
<path d="M0 0 C1.99609375 0.48828125 1.99609375 0.48828125 4.4375 1.3125 C16.10179056 4.97122711 26.93802799 5.78695882 39 4 C39.495 5.485 39.495 5.485 40 7 C28.23913272 10.34509638 13.90205595 8.7831024 2.484375 4.97265625 C0 4 0 4 -2 3 C-2 2.34 -2 1.68 -2 1 C-1.34 0.67 -0.68 0.34 0 0 Z " fill="#079B4E" transform="translate(50,24)" />
<path d="M0 0 C0.66 0.33 1.32 0.66 2 1 C1.06027344 1.77923828 1.06027344 1.77923828 0.1015625 2.57421875 C-0.71570312 3.27160156 -1.53296875 3.96898437 -2.375 4.6875 C-3.18710937 5.37199219 -3.99921875 6.05648438 -4.8359375 6.76171875 C-7.15264204 9.15787706 -8.11569708 10.8055799 -9 14 C-9.10070752 18.90109947 -8.1380679 23.58132633 -6 28 C-5.34 28 -4.68 28 -4 28 C-4 28.66 -4 29.32 -4 30 C-5.65 30.66 -7.3 31.32 -9 32 C-12.05767342 26.1030584 -13.76578055 21.6732305 -13 15 C-11.08399881 9.47740833 -7.306754 5.79777399 -3 2 C-2.01 1.34 -1.02 0.68 0 0 Z " fill="#109A4B" transform="translate(32,4)" />
<path d="M0 0 C1.18529297 0.32484375 1.18529297 0.32484375 2.39453125 0.65625 C12.71962613 3.20507342 22.42268197 3.30446438 33 3 C33.495 4.485 33.495 4.485 34 6 C22.35992529 9.46665663 10.30490871 6.06573796 -1 3 C-0.67 2.01 -0.34 1.02 0 0 Z " fill="#F0801F" transform="translate(53,22)" />
<path d="M0 0 C0.99 0.33 1.98 0.66 3 1 C2.195625 1.61875 1.39125 2.2375 0.5625 2.875 C-2.03874519 4.74164041 -2.03874519 4.74164041 -3 7 C-3.50169415 9.83073436 -3.50169415 9.83073436 -3 13 C-0.57184111 16.41254763 1.51521145 18.67680763 5 21 C5 21.66 5 22.32 5 23 C3.35 23.33 1.7 23.66 0 24 C-3.56350902 20.41788258 -6.5110408 17.24462342 -8.375 12.5 C-7.95152481 8.54756487 -7.15649219 7.56445994 -4.625 4.625 C-3.43576722 3.39786338 -2.23123386 2.18499033 -1 1 C-0.67 0.67 -0.34 0.34 0 0 Z " fill="#109B4D" transform="translate(34,6)" />
<path d="M0 0 C0.66 0.33 1.32 0.66 2 1 C2 2.32 2 3.64 2 5 C-0.9770956 6.49130948 -2.75602341 7.01897936 -6.11328125 6.7578125 C-7.16902344 6.54898437 -8.22476563 6.34015625 -9.3125 6.125 C-10.91544922 5.81949219 -10.91544922 5.81949219 -12.55078125 5.5078125 C-13.35902344 5.34023437 -14.16726562 5.17265625 -15 5 C-14.67 4.01 -14.34 3.02 -14 2 C-9.6760463 -0.56734751 -4.88384362 -0.41258404 0 0 Z " fill="#AA882D" transform="translate(50,0)" />
<path d="M0 0 C0.66 0.33 1.32 0.66 2 1 C1.360625 1.556875 0.72125 2.11375 0.0625 2.6875 C-2.10432585 4.84281732 -2.10432585 4.84281732 -2.9375 7.4375 C-3.17490122 10.06757079 -3.17490122 10.06757079 -1.9375 12.5625 C0.36074257 15.45383743 2.84829744 17.10897846 6 19 C5.34 19.66 4.68 20.32 4 21 C2.3125 20.8125 2.3125 20.8125 0 20 C-2.78413738 17.48101856 -4.91548918 15.12676623 -7 12 C-6.625 8.3125 -6.625 8.3125 -6 5 C-5.34 5 -4.68 5 -4 5 C-3.71125 4.360625 -3.4225 3.72125 -3.125 3.0625 C-2 1 -2 1 0 0 Z " fill="#E98020" transform="translate(37,6)" />
<path d="M0 0 C1.75032844 0.14183696 3.50025534 0.28863429 5.25 0.4375 C6.71179687 0.55931641 6.71179687 0.55931641 8.203125 0.68359375 C11 1 11 1 12.90625 1.53125 C16.02651197 2.22981611 19.05963125 2.09204045 22.25 2.0625 C23.51328125 2.05347656 24.7765625 2.04445313 26.078125 2.03515625 C27.52445313 2.01775391 27.52445313 2.01775391 29 2 C29 2.66 29 3.32 29 4 C24.58803408 6.20598296 18.80335281 5.29989716 14 5 C9.27348858 4.28700395 4.63260458 3.16683294 0 2 C0 1.34 0 0.68 0 0 Z " fill="#259949" transform="translate(55,21)" />
<path d="M0 0 C0.66 0.33 1.32 0.66 2 1 C1.319375 1.7425 0.63875 2.485 -0.0625 3.25 C-1.0215625 4.61125 -1.0215625 4.61125 -2 6 C-2.1576585 8.12042756 -2.1576585 8.12042756 -1 10 C1.64361016 13.21009805 4.07260319 14.69086773 8 16 C8 16.66 8 17.32 8 18 C6.2578125 18.6640625 6.2578125 18.6640625 4 19 C0.95798592 17.47325331 -1.55056269 15.35232305 -4 13 C-5.5 10.125 -5.5 10.125 -6 8 C-2.25 2.25 -2.25 2.25 0 0 Z " fill="#0A9C4E" transform="translate(39,6)" />
<path d="M0 0 C0.53625 0.165 1.0725 0.33 1.625 0.5 C4.45886009 1.09660212 7.1119806 1.0656368 10 1 C10.33 1.99 10.66 2.98 11 4 C11 3.01 11 2.02 11 1 C12.98 1 14.96 1 17 1 C17 2.32 17 3.64 17 5 C11 5 5 5 -1 5 C-0.67 3.35 -0.34 1.7 0 0 Z " fill="#FBFCFC" transform="translate(25,100)" />
<path d="M0 0 C0.99 0.33 1.98 0.66 3 1 C1.515 2.485 1.515 2.485 0 4 C0.44238231 6.37540603 0.44238231 6.37540603 2 9 C4.53358232 10.91311318 7.21666338 12.47887418 10 14 C9.67 14.66 9.34 15.32 9 16 C4.51400257 14.74809374 1.40652872 13.20614467 -2 10 C-2 9.34 -2 8.68 -2 8 C-2.66 8 -3.32 8 -4 8 C-3.61266988 5.13375709 -3.35179633 3.40808374 -1.4375 1.1875 C-0.963125 0.795625 -0.48875 0.40375 0 0 Z " fill="#E18121" transform="translate(40,7)" />
<path d="M0 0 C3.63 0 7.26 0 11 0 C11 1.65 11 3.3 11 5 C7.37 5 3.74 5 0 5 C0 3.35 0 1.7 0 0 Z " fill="#FBFCFC" transform="translate(17,84)" />
<path d="M0 0 C0.66 0.33 1.32 0.66 2 1 C1.34 1.66 0.68 2.32 0 3 C0.15546972 4.92189044 0.15546972 4.92189044 1 7 C3.06702585 8.56473341 3.06702585 8.56473341 5.5625 9.75 C6.38878906 10.17796875 7.21507812 10.6059375 8.06640625 11.046875 C8.70449219 11.36140625 9.34257813 11.6759375 10 12 C10 12.66 10 13.32 10 14 C4.99611646 13.52343966 2.01500942 11.98791399 -2 9 C-2.33 8.67 -2.66 8.34 -3 8 C-2.71269945 5.66055264 -2.38063221 3.3260857 -2 1 C-1.34 0.67 -0.68 0.34 0 0 Z " fill="#129B4D" transform="translate(43,7)" />
<path d="M0 0 C0.72703125 0.144375 1.4540625 0.28875 2.203125 0.4375 C9.55348796 1.79449009 16.53387397 2.23828062 24 2 C24 2.66 24 3.32 24 4 C16.46650768 6.51116411 8.52197335 4.54864157 1 3 C0.67 2.01 0.34 1.02 0 0 Z " fill="#DF8020" transform="translate(58,19)" />
<path d="M0 0 C0.66 0 1.32 0 2 0 C2 1.98 2 3.96 2 6 C4.64 7.32 7.28 8.64 10 10 C10 10.99 10 11.98 10 13 C5.9747211 11.78305522 2.35138383 10.58535324 -1 8 C-1.9375 5.5 -1.9375 5.5 -2 3 C-1.34 2.01 -0.68 1.02 0 0 Z " fill="#E28020" transform="translate(45,7)" />
<path d="M0 0 C0.66 0.33 1.32 0.66 2 1 C1.27683594 1.63615234 1.27683594 1.63615234 0.5390625 2.28515625 C-3.95811973 6.44923862 -3.95811973 6.44923862 -6.4375 11.9375 C-6.623125 12.948125 -6.80875 13.95875 -7 15 C-7.66 15 -8.32 15 -9 15 C-9.66 15.99 -10.32 16.98 -11 18 C-10.76131072 11.19735556 -10.76131072 11.19735556 -8.73828125 8.015625 C-6.12550612 4.93557775 -3.39708473 2.22117079 0 0 Z " fill="#DC8121" transform="translate(33,5)" />
<path d="M0 0 C6.6 0.33 13.2 0.66 20 1 C20 1.66 20 2.32 20 3 C16.80616677 4.59691662 13.48358719 4.24637212 10 4 C6.63798264 3.45080682 3.31981409 2.76192454 0 2 C0 1.34 0 0.68 0 0 Z " fill="#379746" transform="translate(60,18)" />
<path d="M0 0 C3.63 0 7.26 0 11 0 C11 1.32 11 2.64 11 4 C7.37 4 3.74 4 0 4 C0 2.68 0 1.36 0 0 Z " fill="#FBFCFC" transform="translate(110,101)" />
<path d="M0 0 C3.3 0 6.6 0 10 0 C10 1.32 10 2.64 10 4 C6.37 4 2.74 4 -1 4 C-0.67 2.68 -0.34 1.36 0 0 Z " fill="#FBFCFC" transform="translate(61,101)" />
<path d="M0 0 C3.5786304 1.65167557 6.74820188 3.78286492 10 6 C9.34 6.66 8.68 7.32 8 8 C4.65902615 7.40339753 2.45699871 6.36924875 0 4 C0 2.68 0 1.36 0 0 Z " fill="#F07F1F" transform="translate(33,19)" />
<path d="M0 0 C3.3 0 6.6 0 10 0 C10 1.32 10 2.64 10 4 C6.7 4 3.4 4 0 4 C0 2.68 0 1.36 0 0 Z " fill="#FBFCFC" transform="translate(11,101)" />
<path d="M0 0 C0.66 0 1.32 0 2 0 C2 1.32 2 2.64 2 4 C3.65 4 5.3 4 7 4 C7.33 4.99 7.66 5.98 8 7 C4.6875 7.1875 4.6875 7.1875 1 7 C-0.9375 5.5 -0.9375 5.5 -2 4 C-1.34 2.68 -0.68 1.36 0 0 Z " fill="#9DCFE5" transform="translate(64,7)" />
<path d="M0 0 C0.66 0 1.32 0 2 0 C2 1.65 2 3.3 2 5 C3.11375 5.433125 3.11375 5.433125 4.25 5.875 C6.56739797 6.82302644 8.77917115 7.84845911 11 9 C10.01 9.33 9.02 9.66 8 10 C5.9921875 9.36328125 5.9921875 9.36328125 3.875 8.3125 C2.81925781 7.81169922 2.81925781 7.81169922 1.7421875 7.30078125 C0 6 0 6 -0.8046875 3.98046875 C-1 2 -1 2 0 0 Z " fill="#1A9A4C" transform="translate(47,8)" />
<path d="M0 0 C1.32 0 2.64 0 4 0 C4 1.32 4 2.64 4 4 C1.75 5.125 1.75 5.125 -1 6 C-3.3125 5.125 -3.3125 5.125 -5 4 C-4.360625 3.71125 -3.72125 3.4225 -3.0625 3.125 C-0.84793921 2.17176549 -0.84793921 2.17176549 0 0 Z " fill="#66903B" transform="translate(48,1)" />
<path d="M0 0 C0.66 0.33 1.32 0.66 2 1 C2.2475 1.639375 2.495 2.27875 2.75 2.9375 C3.1625 3.618125 3.575 4.29875 4 5 C7.04199472 6.29231642 7.04199472 6.29231642 10 7 C10 7.66 10 8.32 10 9 C6.24620139 8.65080943 4.22841233 8.16386102 1.125 5.9375 C0.42375 5.298125 -0.2775 4.65875 -1 4 C-0.67 2.68 -0.34 1.36 0 0 Z " fill="#E7801F" transform="translate(50,8)" />
<path d="M0 0 C0.91523437 0.0721875 1.83046875 0.144375 2.7734375 0.21875 C3.96195312 0.3115625 5.15046875 0.404375 6.375 0.5 C8.15003906 0.63921875 8.15003906 0.63921875 9.9609375 0.78125 C11.63786843 0.90195454 13.31873056 1 15 1 C15 1.66 15 2.32 15 3 C10.05 3 5.1 3 0 3 C0 2.01 0 1.02 0 0 Z " fill="#E4801F" transform="translate(63,16)" />
<path d="M0 0 C0.556875 0.598125 1.11375 1.19625 1.6875 1.8125 C3.98556429 3.9863446 6.24416549 5.46898083 9 7 C8.01 7.495 8.01 7.495 7 8 C3.4375 6.8125 3.4375 6.8125 0 5 C-0.9375 2.8125 -0.9375 2.8125 -1 1 C-0.67 0.67 -0.34 0.34 0 0 Z " fill="#1B9A4C" transform="translate(53,8)" />
<path d="M0 0 C0 0.66 0 1.32 0 2 C-2.64 2.33 -5.28 2.66 -8 3 C-8.33 2.01 -8.66 1.02 -9 0 C-3.375 -1.125 -3.375 -1.125 0 0 Z " fill="#079B4D" transform="translate(90,29)" />
<path d="M0 0 C1.33897583 0.95043374 2.67105427 1.91059147 4 2.875 C5.11375 3.67550781 5.11375 3.67550781 6.25 4.4921875 C6.8275 4.98976563 7.405 5.48734375 8 6 C8 6.66 8 7.32 8 8 C6.35 8.33 4.7 8.66 3 9 C2.67 8.34 2.34 7.68 2 7 C2.66 7 3.32 7 4 7 C3.01 5.824375 3.01 5.824375 2 4.625 C1.34 3.75875 0.68 2.8925 0 2 C0 1.34 0 0.68 0 0 Z " fill="#079C4E" transform="translate(31,21)" />
<path d="M0 0 C1.98 0 3.96 0 6 0 C6 1.32 6 2.64 6 4 C4.02 4 2.04 4 0 4 C0 2.68 0 1.36 0 0 Z " fill="#FBFCFC" transform="translate(99,101)" />
<path d="M0 0 C0.66 0.33 1.32 0.66 2 1 C1.38125 1.598125 0.7625 2.19625 0.125 2.8125 C-2.13676954 5.00811144 -2.13676954 5.00811144 -4 8 C-4.66 7.67 -5.32 7.34 -6 7 C-6 6.34 -6 5.68 -6 5 C-5.34 5 -4.68 5 -4 5 C-3.71125 4.360625 -3.4225 3.72125 -3.125 3.0625 C-2 1 -2 1 0 0 Z " fill="#D08223" transform="translate(37,6)" />
<path d="M0 0 C-2.91765 1.9451 -4.62537285 2.45276317 -8 3 C-8 3.66 -8 4.32 -8 5 C-8.99 5 -9.98 5 -11 5 C-10.67 4.01 -10.34 3.02 -10 2 C-6.58442859 0.19733731 -3.83134499 -0.218934 0 0 Z " fill="#1C994A" transform="translate(46,0)" />
<path d="M0 0 C0.99 0.66 1.98 1.32 3 2 C3 2.66 3 3.32 3 4 C1 5.625 1 5.625 -1 7 C-1.66 6.34 -2.32 5.68 -3 5 C-2.67 4.01 -2.34 3.02 -2 2 C-1.34 2 -0.68 2 0 2 C0 1.34 0 0.68 0 0 Z " fill="#AA882C" transform="translate(52,1)" />
<path d="M0 0 C0 0.66 0 1.32 0 2 C-2.31 2 -4.62 2 -7 2 C-7.33 1.34 -7.66 0.68 -8 0 C-4.71303767 -0.79953138 -3.28976808 -1.09658936 0 0 Z " fill="#FC7E1D" transform="translate(87,26)" />
<path d="M0 0 C1.32 0 2.64 0 4 0 C4 1.32 4 2.64 4 4 C2.68 4 1.36 4 0 4 C0 2.68 0 1.36 0 0 Z " fill="#FBFCFC" transform="translate(94,101)" />
<path d="M0 0 C1.32 0 2.64 0 4 0 C4 1.32 4 2.64 4 4 C2.68 4 1.36 4 0 4 C0 2.68 0 1.36 0 0 Z " fill="#FBFCFC" transform="translate(79,101)" />
<path d="M0 0 C1.32 0 2.64 0 4 0 C4 1.32 4 2.64 4 4 C2.68 4 1.36 4 0 4 C0 2.68 0 1.36 0 0 Z " fill="#FBFCFC" transform="translate(2,101)" />
<path d="M0 0 C0.66 0.33 1.32 0.66 2 1 C2 2.32 2 3.64 2 5 C1.01 5 0.02 5 -1 5 C-0.67 3.35 -0.34 1.7 0 0 Z " fill="#FBFCFC" transform="translate(87,100)" />
<path d="M0 0 C0.99 0 1.98 0 3 0 C3 1.32 3 2.64 3 4 C2.01 4 1.02 4 0 4 C0 2.68 0 1.36 0 0 Z " fill="#FBFCFC" transform="translate(106,101)" />
<path d="M0 0 C0.99 0 1.98 0 3 0 C3 1.32 3 2.64 3 4 C2.01 4 1.02 4 0 4 C0 2.68 0 1.36 0 0 Z " fill="#FBFCFC" transform="translate(90,101)" />
<path d="M0 0 C0.99 0 1.98 0 3 0 C3 1.32 3 2.64 3 4 C2.01 4 1.02 4 0 4 C0 2.68 0 1.36 0 0 Z " fill="#FBFCFC" transform="translate(75,101)" />
<path d="M0 0 C0.99 0 1.98 0 3 0 C3 1.32 3 2.64 3 4 C2.01 4 1.02 4 0 4 C0 2.68 0 1.36 0 0 Z " fill="#FBFCFC" transform="translate(46,101)" />
<path d="M0 0 C0.99 0 1.98 0 3 0 C3 1.32 3 2.64 3 4 C2.01 4 1.02 4 0 4 C0 2.68 0 1.36 0 0 Z " fill="#FBFCFC" transform="translate(7,101)" />
<path d="M0 0 C0.99 0.33 1.98 0.66 3 1 C3 1.99 3 2.98 3 4 C2.01 4 1.02 4 0 4 C0 2.68 0 1.36 0 0 Z " fill="#FBFCFC" transform="translate(50,101)" />
<path d="M0 0 C0.66 0 1.32 0 2 0 C2.33 1.32 2.66 2.64 3 4 C2.01 4 1.02 4 0 4 C0 2.68 0 1.36 0 0 Z " fill="#FBFCFC" transform="translate(54,101)" />
<path d="M0 0 C0.66 0 1.32 0 2 0 C2 1.32 2 2.64 2 4 C1.34 4 0.68 4 0 4 C0 2.68 0 1.36 0 0 Z " fill="#FBFCFC" transform="translate(72,101)" />
<path d="M0 0 C0.66 0 1.32 0 2 0 C2 1.32 2 2.64 2 4 C1.34 4 0.68 4 0 4 C0 2.68 0 1.36 0 0 Z " fill="#FBFCFC" transform="translate(43,101)" />
<path d="M0 0 C0.33 0 0.66 0 1 0 C1 1.65 1 3.3 1 5 C0.67 5 0.34 5 0 5 C0 3.35 0 1.7 0 0 Z " fill="#FBFCFC" transform="translate(0,100)" />
</svg>
